<svg width="520" height="720" viewBox="0 0 520 720" fill="none" xmlns="http://www.w3.org/2000/svg">
  <defs>
    <linearGradient id="warm" x1="0" y1="0" x2="520" y2="720" gradientUnits="userSpaceOnUse">
      <stop offset="0" stop-color="#FBF6EC"/>
      <stop offset="1" stop-color="#EFE6D7"/>
    </linearGradient>
    <filter id="shadow" x="22" y="14" width="476" height="692" color-interpolation-filters="sRGB" filterUnits="userSpaceOnUse">
      <feDropShadow dx="0" dy="20" stdDeviation="30" flood-color="#5A4125" flood-opacity="0.16"/>
      <feDropShadow dx="0" dy="1" stdDeviation="3" flood-color="#5A4125" flood-opacity="0.10"/>
    </filter>
    <style>
      .ui { font-family: -apple-system, BlinkMacSystemFont, "SF Pro Display", "Helvetica Neue", Arial, sans-serif; }
      .mono { font-family: "SF Mono", ui-monospace, Menlo, Consolas, monospace; }
      .title { font-size: 27px; font-weight: 790; letter-spacing: -0.65px; fill: #261B12; }
      .tag { font-size: 12px; font-weight: 760; letter-spacing: .7px; fill: #9A7652; }
      .endpoint { font-size: 12px; font-weight: 740; fill: #8C7A69; }
      .name { font-size: 16px; font-weight: 760; fill: #241C15; }
      .route { font-size: 13px; font-weight: 560; fill: #695D51; }
      .chip { font-size: 12px; font-weight: 760; }
      .button { font-size: 13px; font-weight: 760; }
    </style>
  </defs>

  <rect width="520" height="720" rx="34" fill="url(#warm)"/>
  <g filter="url(#shadow)" class="ui">
    <rect x="50" y="34" width="420" height="650" rx="30" fill="#FFFDF8"/>
    <rect x="50.5" y="34.5" width="419" height="649" rx="29.5" stroke="#E5D9C8"/>

    <g transform="translate(78 72)">
      <circle cx="18" cy="10" r="18" fill="#7D542F"/>
      <path d="M9 13C11 7 15 4 20 4C26 4 30 8 30 15C30 24 22 27 14 23C10 21 8 18 9 13Z" fill="#F5D6A8"/>
      <circle cx="21" cy="13" r="3" fill="#7D542F"/>
      <text x="48" y="17" class="title">Burrow</text>
      <text x="50" y="42" class="tag">TUNNELS THAT STAY PUT</text>
    </g>

    <g transform="translate(320 74)">
      <rect width="124" height="38" rx="19" fill="#F8F0E4"/>
      <circle cx="20" cy="19" r="4.5" fill="#10B45F"/>
      <text x="33" y="24" font-size="13" font-weight="800" fill="#80684F">2</text>
      <circle cx="62" cy="19" r="4.5" fill="#F07F00"/>
      <text x="75" y="24" font-size="13" font-weight="800" fill="#80684F">1</text>
      <circle cx="101" cy="19" r="4.5" fill="#EF2443"/>
      <text x="114" y="24" font-size="13" font-weight="800" fill="#80684F">2</text>
    </g>

    <rect x="78" y="132" width="366" height="36" rx="18" fill="#FFF4E6"/>
    <circle cx="97" cy="150" r="5" fill="#C56B27"/>
    <text x="113" y="155" font-size="13" font-weight="650" fill="#805A38">workstation:3000 needs attention. Hover for details.</text>

    <g transform="translate(78 202)">
      <rect x="0" y="-16" width="366" height="26" rx="13" fill="#F8F1E8"/>
      <text class="mono endpoint" x="15" y="2">workstation.local:3333</text>
      <circle cx="332" cy="-5" r="4" fill="#10B45F"/>
      <text x="345" y="0" font-size="12" font-weight="800" fill="#A18B74">1</text>

      <rect x="0" y="23" width="366" height="78" rx="22" fill="#FFFFFF" stroke="#E9DFD2"/>
      <rect x="0" y="23" width="8" height="78" rx="4" fill="#10B45F"/>
      <text x="28" y="55" class="name">sp-8875-web3000</text>
      <text x="28" y="78" class="mono route">8875 -> 3000</text>
      <g transform="translate(205 48)">
        <rect width="68" height="30" rx="15" fill="#ECF5FF" stroke="#CDE2FF"/>
        <path d="M20 7L14 19H20L17.5 26L26 13H19L20 7Z" fill="#087DFF"/>
        <text x="33" y="20" class="chip" fill="#087DFF">Auto</text>
      </g>
      <g transform="translate(286 48)">
        <rect width="58" height="30" rx="15" fill="#FDF8F3" stroke="#EADFD4"/>
        <text x="17" y="20" class="button" fill="#A64D3B">Stop</text>
      </g>
      <text x="350" y="71" font-size="24" font-weight="900" fill="#8A7663">...</text>
    </g>

    <g transform="translate(78 344)">
      <rect x="0" y="-16" width="366" height="26" rx="13" fill="#F8F1E8"/>
      <text class="mono endpoint" x="15" y="2">bastion.example.net:4444</text>
      <circle cx="318" cy="-5" r="4" fill="#10B45F"/>
      <circle cx="332" cy="-5" r="4" fill="#EF2443"/>
      <text x="345" y="0" font-size="12" font-weight="800" fill="#A18B74">2</text>

      <rect x="0" y="23" width="366" height="144" rx="22" fill="#FFFFFF" stroke="#E9DFD2"/>
      <rect x="0" y="23" width="8" height="72" rx="4" fill="#EF2443"/>
      <text x="28" y="55" class="name">workstation:3000</text>
      <text x="28" y="78" class="mono route">8866 -> 3000</text>
      <circle cx="178" cy="61" r="15" fill="#F9E5DF"/>
      <circle cx="178" cy="61" r="8.5" fill="#AF3A2F"/>
      <text x="175" y="66" font-size="11" font-weight="800" fill="#FFFFFF">i</text>
      <g transform="translate(205 48)">
        <rect width="68" height="30" rx="15" fill="#ECF5FF" stroke="#CDE2FF"/>
        <path d="M20 7L14 19H20L17.5 26L26 13H19L20 7Z" fill="#087DFF"/>
        <text x="33" y="20" class="chip" fill="#087DFF">Auto</text>
      </g>
      <g transform="translate(286 48)">
        <rect width="58" height="30" rx="15" fill="#FDF8F3" stroke="#EADFD4"/>
        <text x="17" y="20" class="button" fill="#A64D3B">Stop</text>
      </g>
      <text x="350" y="71" font-size="24" font-weight="900" fill="#8A7663">...</text>

      <line x1="28" y1="96" x2="366" y2="96" stroke="#F0E8DE"/>
      <rect x="0" y="96" width="8" height="71" rx="4" fill="#10B45F"/>
      <text x="28" y="128" class="name">sp-8876-web8888</text>
      <text x="28" y="151" class="mono route">8876 -> 8888</text>
      <g transform="translate(205 121)">
        <rect width="68" height="30" rx="15" fill="#ECF5FF" stroke="#CDE2FF"/>
        <path d="M20 7L14 19H20L17.5 26L26 13H19L20 7Z" fill="#087DFF"/>
        <text x="33" y="20" class="chip" fill="#087DFF">Auto</text>
      </g>
      <g transform="translate(286 121)">
        <rect width="58" height="30" rx="15" fill="#FDF8F3" stroke="#EADFD4"/>
        <text x="17" y="20" class="button" fill="#A64D3B">Stop</text>
      </g>
      <text x="350" y="144" font-size="24" font-weight="900" fill="#8A7663">...</text>
    </g>

    <g transform="translate(78 552)">
      <rect x="0" y="-16" width="366" height="26" rx="13" fill="#F8F1E8"/>
      <text class="mono endpoint" x="15" y="2">cluster.example.edu:22</text>
      <circle cx="332" cy="-5" r="4" fill="#EF2443"/>
      <text x="345" y="0" font-size="12" font-weight="800" fill="#A18B74">1</text>

      <rect x="0" y="23" width="366" height="78" rx="22" fill="#FFFFFF" stroke="#E9DFD2"/>
      <rect x="0" y="23" width="8" height="78" rx="4" fill="#EF2443"/>
      <text x="28" y="55" class="name">cluster-web</text>
      <text x="28" y="78" class="mono route">4000 -> 172.18...</text>
      <circle cx="178" cy="61" r="15" fill="#F9E5DF"/>
      <circle cx="178" cy="61" r="8.5" fill="#AF3A2F"/>
      <text x="175" y="66" font-size="11" font-weight="800" fill="#FFFFFF">i</text>
      <g transform="translate(205 48)">
        <rect width="68" height="30" rx="15" fill="#ECF5FF" stroke="#CDE2FF"/>
        <path d="M20 7L14 19H20L17.5 26L26 13H19L20 7Z" fill="#087DFF"/>
        <text x="33" y="20" class="chip" fill="#087DFF">Auto</text>
      </g>
      <g transform="translate(286 48)">
        <rect width="72" height="30" rx="15" fill="#7D542F"/>
        <text x="13" y="20" class="button" fill="#FFFFFF">Connect</text>
      </g>
    </g>

    <g transform="translate(78 660)">
      <text x="0" y="0" font-size="14" font-weight="650" fill="#8A7663">Settings</text>
      <rect x="226" y="-22" width="140" height="34" rx="17" fill="#7D542F"/>
      <path d="M248 -14V2M240 -6H256" stroke="#FFFFFF" stroke-width="2" stroke-linecap="round"/>
      <text x="270" y="0" font-size="15" font-weight="760" fill="#FFFFFF">New Tunnel</text>
    </g>
  </g>
</svg>
