<svg width="520" height="720" viewBox="0 0 520 720" fill="none" xmlns="http://www.w3.org/2000/svg">
  <defs>
    <filter id="shadow" x="20" y="14" width="480" height="692" color-interpolation-filters="sRGB" filterUnits="userSpaceOnUse">
      <feDropShadow dx="0" dy="18" stdDeviation="28" flood-color="#1F332F" flood-opacity="0.16"/>
      <feDropShadow dx="0" dy="1" stdDeviation="3" flood-color="#1F332F" flood-opacity="0.12"/>
    </filter>
    <style>
      .ui { font-family: -apple-system, BlinkMacSystemFont, "SF Pro Display", "Helvetica Neue", Arial, sans-serif; }
      .mono { font-family: "SF Mono", ui-monospace, Menlo, Consolas, monospace; }
      .title { font-size: 25px; font-weight: 760; letter-spacing: -0.55px; fill: #101312; }
      .subtle { fill: #747D78; }
      .endpoint { font-size: 12px; font-weight: 700; letter-spacing: .3px; fill: #727B76; }
      .name { font-size: 16px; font-weight: 740; fill: #111413; }
      .route { font-size: 13px; font-weight: 560; fill: #59635E; }
      .chip { font-size: 12px; font-weight: 720; }
      .button { font-size: 13px; font-weight: 720; }
    </style>
  </defs>

  <rect width="520" height="720" rx="34" fill="#EDF5F1"/>
  <g filter="url(#shadow)" class="ui">
    <rect x="48" y="34" width="424" height="650" rx="28" fill="#FCFDFB"/>
    <rect x="48.5" y="34.5" width="423" height="649" rx="27.5" stroke="#DDE5E1"/>

    <text x="74" y="82" class="title">Burrow</text>
    <g transform="translate(300 64)">
      <circle cx="0" cy="8" r="4.5" fill="#0BBC61"/>
      <text x="12" y="14" font-size="13" font-weight="760" fill="#626C66">2</text>
      <circle cx="46" cy="8" r="4.5" fill="#FF8A00"/>
      <text x="58" y="14" font-size="13" font-weight="760" fill="#626C66">1</text>
      <circle cx="92" cy="8" r="4.5" fill="#FF1640"/>
      <text x="104" y="14" font-size="13" font-weight="760" fill="#626C66">2</text>
    </g>
    <rect x="74" y="103" width="292" height="32" rx="16" fill="#F7F1EA"/>
    <circle cx="91" cy="119" r="4.5" fill="#D3542F"/>
    <text x="104" y="124" font-size="13" font-weight="600" fill="#776A62">workstation:3000 exited. Check auth or VPN.</text>
    <line x1="74" y1="154" x2="446" y2="154" stroke="#E7ECE9"/>

    <g transform="translate(74 184)">
      <text class="mono endpoint" x="0" y="0">100.64.0.42:3333</text>
      <text x="348" y="0" font-size="12" font-weight="760" fill="#9BA29F">1</text>
      <circle cx="337" cy="-4" r="4" fill="#0BBC61"/>
      <g transform="translate(0 17)">
        <rect width="372" height="74" rx="16" fill="#FFFFFF" stroke="#E9EEEB"/>
        <rect x="0" y="0" width="4" height="74" rx="2" fill="#0BBC61"/>
        <circle cx="22" cy="36" r="6" fill="#0BBC61"/>
        <text x="42" y="31" class="name">sp-8875-web3000</text>
        <text x="42" y="53" class="mono route">8875 -> 3000</text>
        <g transform="translate(213 24)">
          <rect width="64" height="28" rx="14" fill="#F2F8FF" stroke="#CEE2FF"/>
          <path d="M19 7L13 18H19L16.8 25L25 13H18.5L19 7Z" fill="#087DFF"/>
          <text x="31" y="19" class="chip" fill="#087DFF">Auto</text>
        </g>
        <g transform="translate(289 24)">
          <rect width="58" height="28" rx="14" fill="#F7F8F7" stroke="#E0E6E2"/>
          <text x="17" y="19" class="button" fill="#B74E4B">Stop</text>
        </g>
        <circle cx="358" cy="37" r="2.2" fill="#69706C"/>
        <circle cx="365" cy="37" r="2.2" fill="#69706C"/>
        <circle cx="372" cy="37" r="2.2" fill="#69706C"/>
      </g>
    </g>

    <g transform="translate(74 305)">
      <text class="mono endpoint" x="0" y="0">100.64.0.42:4444</text>
      <circle cx="324" cy="-4" r="4" fill="#0BBC61"/>
      <circle cx="337" cy="-4" r="4" fill="#FF1640"/>
      <text x="348" y="0" font-size="12" font-weight="760" fill="#9BA29F">2</text>
      <g transform="translate(0 17)">
        <rect width="372" height="132" rx="16" fill="#FFFFFF" stroke="#E9EEEB"/>
        <circle cx="22" cy="36" r="6" fill="#FF1640"/>
        <text x="42" y="31" class="name">workstation:3000</text>
        <text x="42" y="53" class="mono route">8866 -> 3000</text>
        <circle cx="182" cy="38" r="15" fill="#FBECEC"/>
        <circle cx="182" cy="38" r="8.5" fill="#B93434"/>
        <text x="179" y="43" font-size="11" font-weight="800" fill="#FFFFFF">i</text>
        <g transform="translate(213 24)">
          <rect width="64" height="28" rx="14" fill="#F2F8FF" stroke="#CEE2FF"/>
          <path d="M19 7L13 18H19L16.8 25L25 13H18.5L19 7Z" fill="#087DFF"/>
          <text x="31" y="19" class="chip" fill="#087DFF">Auto</text>
        </g>
        <g transform="translate(289 24)">
          <rect width="58" height="28" rx="14" fill="#F7F8F7" stroke="#E0E6E2"/>
          <text x="17" y="19" class="button" fill="#B74E4B">Stop</text>
        </g>
        <circle cx="358" cy="37" r="2.2" fill="#69706C"/>
        <circle cx="365" cy="37" r="2.2" fill="#69706C"/>
        <circle cx="372" cy="37" r="2.2" fill="#69706C"/>
        <line x1="42" y1="70" x2="372" y2="70" stroke="#EEF2F0"/>
        <circle cx="22" cy="96" r="6" fill="#0BBC61"/>
        <text x="42" y="91" class="name">sp-8876-web8888</text>
        <text x="42" y="113" class="mono route">8876 -> 8888</text>
        <g transform="translate(213 82)">
          <rect width="64" height="28" rx="14" fill="#F2F8FF" stroke="#CEE2FF"/>
          <path d="M19 7L13 18H19L16.8 25L25 13H18.5L19 7Z" fill="#087DFF"/>
          <text x="31" y="19" class="chip" fill="#087DFF">Auto</text>
        </g>
        <g transform="translate(289 82)">
          <rect width="58" height="28" rx="14" fill="#F7F8F7" stroke="#E0E6E2"/>
          <text x="17" y="19" class="button" fill="#B74E4B">Stop</text>
        </g>
      </g>
    </g>

    <g transform="translate(74 495)">
      <text class="mono endpoint" x="0" y="0">cluster.example.edu:22</text>
      <text x="348" y="0" font-size="12" font-weight="760" fill="#9BA29F">1</text>
      <circle cx="337" cy="-4" r="4" fill="#FF1640"/>
      <g transform="translate(0 17)">
        <rect width="372" height="74" rx="16" fill="#FFFFFF" stroke="#E9EEEB"/>
        <circle cx="22" cy="36" r="6" fill="#FF1640"/>
        <text x="42" y="31" class="name">cluster-web</text>
        <text x="42" y="53" class="mono route">4000 -> 172.18.2...</text>
        <circle cx="182" cy="38" r="15" fill="#FBECEC"/>
        <circle cx="182" cy="38" r="8.5" fill="#B93434"/>
        <text x="179" y="43" font-size="11" font-weight="800" fill="#FFFFFF">i</text>
        <g transform="translate(213 24)">
          <rect width="64" height="28" rx="14" fill="#F2F8FF" stroke="#CEE2FF"/>
          <path d="M19 7L13 18H19L16.8 25L25 13H18.5L19 7Z" fill="#087DFF"/>
          <text x="31" y="19" class="chip" fill="#087DFF">Auto</text>
        </g>
        <g transform="translate(289 24)">
          <rect width="76" height="28" rx="14" fill="#087DFF"/>
          <text x="15" y="19" class="button" fill="#FFFFFF">Connect</text>
        </g>
      </g>
    </g>

    <line x1="74" y1="614" x2="446" y2="614" stroke="#E7ECE9"/>
    <rect x="74" y="634" width="112" height="32" rx="10" fill="#EEF1EF"/>
    <path d="M92 644L107 650.5L92 657V644Z" fill="#0E1110"/>
    <text x="119" y="656" font-size="15" font-weight="650" fill="#141716">Start Enabled</text>
    <rect x="200" y="634" width="86" height="32" rx="10" fill="#EEF1EF"/>
    <rect x="218" y="644" width="13" height="13" rx="2.5" fill="#0E1110"/>
    <text x="243" y="656" font-size="15" font-weight="650" fill="#141716">Stop All</text>
    <rect x="316" y="634" width="130" height="32" rx="10" fill="#087DFF"/>
    <path d="M338 644V657M331.5 650.5H344.5" stroke="#FFFFFF" stroke-width="2" stroke-linecap="round"/>
    <text x="360" y="656" font-size="15" font-weight="720" fill="#FFFFFF">New Tunnel</text>
  </g>
</svg>
