<svg width="1120" height="820" viewBox="0 0 1120 820" fill="none" xmlns="http://www.w3.org/2000/svg">
  <defs>
    <linearGradient id="page" x1="0" y1="0" x2="1120" y2="820" gradientUnits="userSpaceOnUse">
      <stop offset="0" stop-color="#F9FBF8"/>
      <stop offset="0.55" stop-color="#F0F6F2"/>
      <stop offset="1" stop-color="#E8F1EC"/>
    </linearGradient>
    <linearGradient id="connect" x1="0" y1="0" x2="96" y2="0" gradientUnits="userSpaceOnUse">
      <stop stop-color="#4B35D9"/>
      <stop offset="1" stop-color="#177CFF"/>
    </linearGradient>
    <filter id="windowShadow" x="42" y="16" width="748" height="760" color-interpolation-filters="sRGB" filterUnits="userSpaceOnUse">
      <feDropShadow dx="0" dy="22" stdDeviation="28" flood-color="#263D36" flood-opacity="0.18"/>
      <feDropShadow dx="0" dy="2" stdDeviation="5" flood-color="#1A2622" flood-opacity="0.12"/>
    </filter>
    <filter id="editorShadow" x="642" y="134" width="414" height="560" color-interpolation-filters="sRGB" filterUnits="userSpaceOnUse">
      <feDropShadow dx="0" dy="20" stdDeviation="24" flood-color="#253B35" flood-opacity="0.18"/>
      <feDropShadow dx="0" dy="2" stdDeviation="5" flood-color="#1A2622" flood-opacity="0.10"/>
    </filter>
    <filter id="cardShadow" x="-20%" y="-20%" width="140%" height="150%" color-interpolation-filters="sRGB">
      <feDropShadow dx="0" dy="4" stdDeviation="7" flood-color="#263B36" flood-opacity="0.07"/>
    </filter>
    <style>
      .ui { font-family: -apple-system, BlinkMacSystemFont, "SF Pro Display", "Helvetica Neue", Arial, sans-serif; }
      .mono { font-family: "SF Mono", ui-monospace, Menlo, Consolas, monospace; }
      .title { font-size: 30px; font-weight: 780; letter-spacing: -0.9px; fill: #111312; }
      .message { font-size: 15px; font-weight: 560; fill: #6E7772; }
      .endpoint { font-size: 14px; font-weight: 720; fill: #7A827D; }
      .endpointCount { font-size: 13px; font-weight: 760; fill: #9EA6A1; }
      .name { font-size: 20px; font-weight: 780; letter-spacing: -0.28px; fill: #111413; }
      .route { font-size: 17px; font-weight: 620; fill: #59625D; }
      .chipText { font-size: 14px; font-weight: 760; }
      .buttonText { font-size: 15px; font-weight: 760; }
      .footerText { font-size: 15px; font-weight: 680; fill: #121514; }
      .editorTitle { font-size: 20px; font-weight: 780; letter-spacing: -0.35px; fill: #111312; }
      .editorCopy { font-size: 12px; font-weight: 540; fill: #74807A; }
      .fieldLabel { font-size: 11px; font-weight: 720; fill: #7A827D; }
      .fieldText { font-size: 13px; font-weight: 620; fill: #202724; }
    </style>
  </defs>

  <rect width="1120" height="820" rx="40" fill="url(#page)"/>

  <g class="ui" filter="url(#windowShadow)">
    <rect x="72" y="54" width="650" height="682" rx="28" fill="#FBFCFB"/>
    <rect x="72.5" y="54.5" width="649" height="681" rx="27.5" stroke="#DDE4E0"/>
  </g>

  <g class="ui" transform="translate(104 92)">
    <text x="0" y="0" class="title">Burrow</text>
    <text x="0" y="38" class="message">3 up, 1 retrying, 1 needs a saved password.</text>

    <g transform="translate(430 -22)">
      <rect width="56" height="30" rx="15" fill="#E9F9F0" stroke="#CBEEDB"/>
      <circle cx="17" cy="15" r="5" fill="#08BF63"/>
      <text x="30" y="20" font-size="15" font-weight="760" fill="#2FA96A">3</text>
    </g>
    <g transform="translate(496 -22)">
      <rect width="56" height="30" rx="15" fill="#FFF4E4" stroke="#F9DFB5"/>
      <circle cx="17" cy="15" r="5" fill="#FF8700"/>
      <text x="30" y="20" font-size="15" font-weight="760" fill="#E79025">1</text>
    </g>
    <g transform="translate(562 -22)">
      <rect width="56" height="30" rx="15" fill="#FFF1F2" stroke="#F7D5D9"/>
      <circle cx="17" cy="15" r="5" fill="#FF143A"/>
      <text x="30" y="20" font-size="15" font-weight="760" fill="#DB4A57">1</text>
    </g>

    <line x1="0" y1="68" x2="586" y2="68" stroke="#E2E7E4" stroke-width="1.4"/>

    <g transform="translate(0 112)">
      <rect x="0" y="-12" width="17" height="14" rx="3.5" fill="#F5F7F6" stroke="#D5DCD8"/>
      <path d="M5 0L9 -4L5 -8" stroke="#8D9691" stroke-width="1.4" stroke-linecap="round" stroke-linejoin="round"/>
      <text x="28" y="0" class="mono endpoint">100.64.0.42:3333</text>
      <circle cx="536" cy="-6" r="5" fill="#08BF63"/>
      <text x="552" y="0" class="endpointCount">1</text>

      <g filter="url(#cardShadow)">
        <rect x="0" y="20" width="586" height="86" rx="18" fill="#FFFFFF"/>
        <rect x="0.5" y="20.5" width="585" height="85" rx="17.5" stroke="#ECF0EE"/>
      </g>
      <circle cx="25" cy="63" r="8" fill="#08BF63"/>
      <text x="50" y="55" class="name">sp-8875-web3000</text>
      <text x="50" y="82" class="mono route">8875</text>
      <path d="M102 76H126M126 76L119 69M126 76L119 83" stroke="#9AA39E" stroke-width="2.4" stroke-linecap="round" stroke-linejoin="round"/>
      <text x="142" y="82" class="mono route">3000</text>
      <g transform="translate(318 44)">
        <rect width="76" height="34" rx="17" fill="#EEF5FF" stroke="#D3E4FF" stroke-width="1.4"/>
        <path d="M22 8L15 21H22L19 29L29 15H21L22 8Z" fill="#087DFF"/>
        <text x="36" y="22" class="chipText" fill="#087DFF">Auto</text>
      </g>
      <g transform="translate(410 43)">
        <rect width="78" height="36" rx="18" fill="#FBFCFB" stroke="#DDE4E0" stroke-width="1.3"/>
        <text x="25" y="24" class="buttonText" fill="#B14444">Stop</text>
      </g>
      <text x="532" y="72" font-size="24" font-weight="800" fill="#69716D">...</text>
    </g>

    <g transform="translate(0 250)">
      <rect x="0" y="-12" width="17" height="14" rx="3.5" fill="#F5F7F6" stroke="#D5DCD8"/>
      <path d="M5 0L9 -4L5 -8" stroke="#8D9691" stroke-width="1.4" stroke-linecap="round" stroke-linejoin="round"/>
      <text x="28" y="0" class="mono endpoint">100.64.0.42:4444</text>
      <circle cx="518" cy="-6" r="5" fill="#08BF63"/>
      <circle cx="536" cy="-6" r="5" fill="#08BF63"/>
      <text x="552" y="0" class="endpointCount">2</text>

      <g filter="url(#cardShadow)">
        <rect x="0" y="20" width="586" height="146" rx="18" fill="#FFFFFF"/>
        <rect x="0.5" y="20.5" width="585" height="145" rx="17.5" stroke="#ECF0EE"/>
      </g>

      <circle cx="25" cy="63" r="8" fill="#08BF63"/>
      <text x="50" y="55" class="name">workstation:3000</text>
      <text x="50" y="82" class="mono route">8866</text>
      <path d="M102 76H126M126 76L119 69M126 76L119 83" stroke="#9AA39E" stroke-width="2.4" stroke-linecap="round" stroke-linejoin="round"/>
      <text x="142" y="82" class="mono route">3000</text>
      <g transform="translate(318 44)">
        <rect width="76" height="34" rx="17" fill="#EEF5FF" stroke="#D3E4FF" stroke-width="1.4"/>
        <path d="M22 8L15 21H22L19 29L29 15H21L22 8Z" fill="#087DFF"/>
        <text x="36" y="22" class="chipText" fill="#087DFF">Auto</text>
      </g>
      <g transform="translate(410 43)">
        <rect width="78" height="36" rx="18" fill="#FBFCFB" stroke="#DDE4E0" stroke-width="1.3"/>
        <text x="25" y="24" class="buttonText" fill="#B14444">Stop</text>
      </g>
      <text x="532" y="72" font-size="24" font-weight="800" fill="#69716D">...</text>

      <line x1="50" y1="100" x2="586" y2="100" stroke="#E9EEEB" stroke-width="1.2"/>
      <circle cx="25" cy="124" r="8" fill="#08BF63"/>
      <text x="50" y="116" class="name">sp-8876-web8888</text>
      <text x="50" y="143" class="mono route">8876</text>
      <path d="M102 137H126M126 137L119 130M126 137L119 144" stroke="#9AA39E" stroke-width="2.4" stroke-linecap="round" stroke-linejoin="round"/>
      <text x="142" y="143" class="mono route">8888</text>
      <g transform="translate(318 105)">
        <rect width="76" height="34" rx="17" fill="#EEF5FF" stroke="#D3E4FF" stroke-width="1.4"/>
        <path d="M22 8L15 21H22L19 29L29 15H21L22 8Z" fill="#087DFF"/>
        <text x="36" y="22" class="chipText" fill="#087DFF">Auto</text>
      </g>
      <g transform="translate(410 104)">
        <rect width="78" height="36" rx="18" fill="#FBFCFB" stroke="#DDE4E0" stroke-width="1.3"/>
        <text x="25" y="24" class="buttonText" fill="#B14444">Stop</text>
      </g>
      <text x="532" y="133" font-size="24" font-weight="800" fill="#69716D">...</text>
    </g>

    <g transform="translate(0 468)">
      <rect x="0" y="-12" width="17" height="14" rx="3.5" fill="#F5F7F6" stroke="#D5DCD8"/>
      <path d="M5 0L9 -4L5 -8" stroke="#8D9691" stroke-width="1.4" stroke-linecap="round" stroke-linejoin="round"/>
      <text x="28" y="0" class="mono endpoint">100.64.0.42:2222</text>
      <circle cx="536" cy="-6" r="5" fill="#FF8700"/>
      <text x="552" y="0" class="endpointCount">1</text>

      <g filter="url(#cardShadow)">
        <rect x="0" y="20" width="586" height="86" rx="18" fill="#FFFFFF"/>
        <rect x="0.5" y="20.5" width="585" height="85" rx="17.5" stroke="#ECF0EE"/>
      </g>
      <circle cx="25" cy="63" r="8" fill="#FF8700"/>
      <text x="50" y="55" class="name">sp-8877-web8888</text>
      <text x="50" y="82" class="mono route">8877</text>
      <path d="M102 76H126M126 76L119 69M126 76L119 83" stroke="#9AA39E" stroke-width="2.4" stroke-linecap="round" stroke-linejoin="round"/>
      <text x="142" y="82" class="mono route">8888</text>
      <circle cx="288" cy="63" r="17" fill="#FFF3E7"/>
      <circle cx="288" cy="63" r="9" fill="#FF8700"/>
      <text x="285" y="68" font-size="13" font-weight="800" fill="#FFFFFF">i</text>
      <g transform="translate(318 44)">
        <rect width="76" height="34" rx="17" fill="#EEF5FF" stroke="#D3E4FF" stroke-width="1.4"/>
        <path d="M22 8L15 21H22L19 29L29 15H21L22 8Z" fill="#087DFF"/>
        <text x="36" y="22" class="chipText" fill="#087DFF">Auto</text>
      </g>
      <g transform="translate(410 43)">
        <rect width="88" height="36" rx="18" fill="url(#connect)"/>
        <text x="19" y="24" class="buttonText" fill="#FFFFFF">Connect</text>
      </g>
      <text x="532" y="72" font-size="24" font-weight="800" fill="#69716D">...</text>
    </g>

    <line x1="0" y1="610" x2="586" y2="610" stroke="#E2E7E4" stroke-width="1.4"/>
    <g transform="translate(0 638)">
      <rect width="136" height="36" rx="10" fill="#EEF0EF"/>
      <path d="M22 10L34 18L22 26V10Z" fill="#111312"/>
      <text x="48" y="24" class="footerText">Start Enabled</text>
      <rect x="154" width="96" height="36" rx="10" fill="#EEF0EF"/>
      <rect x="174" y="13" width="10" height="10" rx="2" fill="#111312"/>
      <text x="196" y="24" class="footerText">Stop All</text>
      <rect x="438" width="148" height="36" rx="10" fill="#050706"/>
      <path d="M466 10V26M458 18H474" stroke="#FFFFFF" stroke-width="2" stroke-linecap="round"/>
      <text x="492" y="24" class="footerText" fill="#FFFFFF">New Tunnel</text>
    </g>
  </g>

  <g class="ui" filter="url(#editorShadow)">
    <rect x="676" y="162" width="344" height="496" rx="24" fill="#FBFCFB"/>
    <rect x="676.5" y="162.5" width="343" height="495" rx="23.5" stroke="#DDE4E0"/>
  </g>

  <g class="ui" transform="translate(706 199)">
    <text x="0" y="0" class="editorTitle">New Tunnel</text>
    <text x="0" y="25" class="editorCopy">Common settings first. Advanced SSH knobs stay tucked away.</text>
    <text x="248" y="4" font-size="12" font-weight="720" fill="#6D7470">Auto</text>
    <rect x="284" y="-14" width="44" height="24" rx="12" fill="#0A7CFF"/>
    <circle cx="316" cy="-2" r="10" fill="#FFFFFF"/>

    <g transform="translate(0 62)">
      <rect width="284" height="132" rx="14" fill="#FFFFFF" stroke="#ECF0EE"/>
      <text x="14" y="24" font-size="14" font-weight="780" fill="#111312">Endpoint</text>
      <text x="14" y="43" class="editorCopy">Pick a known SSH host or type a new one.</text>

      <text x="20" y="75" class="fieldLabel">Host</text>
      <rect x="72" y="58" width="196" height="26" rx="7" fill="#F7F9F8" stroke="#DDE4E0"/>
      <text x="84" y="76" class="mono fieldText">100.64.0.42</text>

      <text x="20" y="111" class="fieldLabel">SSH Port</text>
      <rect x="72" y="94" width="62" height="26" rx="7" fill="#F7F9F8" stroke="#DDE4E0"/>
      <text x="86" y="112" class="mono fieldText">4444</text>
      <rect x="146" y="94" width="90" height="26" rx="8" fill="#EEF5FF" stroke="#D3E4FF"/>
      <path d="M160 101L154 113H161L158 120L168 107H160L160 101Z" fill="#087DFF"/>
      <text x="174" y="112" font-size="12" font-weight="760" fill="#087DFF">Autofill</text>
    </g>

    <g transform="translate(0 212)">
      <rect width="284" height="132" rx="14" fill="#FFFFFF" stroke="#ECF0EE"/>
      <text x="14" y="24" font-size="14" font-weight="780" fill="#111312">Forward</text>
      <text x="14" y="43" class="editorCopy">The usual case is local port -&gt; destination service.</text>

      <text x="20" y="77" class="fieldLabel">Local Port</text>
      <rect x="88" y="60" width="70" height="26" rx="7" fill="#F7F9F8" stroke="#DDE4E0"/>
      <text x="102" y="78" class="mono fieldText">8878</text>

      <text x="20" y="113" class="fieldLabel">To</text>
      <rect x="88" y="96" width="114" height="26" rx="7" fill="#F7F9F8" stroke="#DDE4E0"/>
      <text x="100" y="114" class="mono fieldText">localhost</text>
      <text x="208" y="114" class="mono fieldText">:</text>
      <rect x="218" y="96" width="50" height="26" rx="7" fill="#F7F9F8" stroke="#DDE4E0"/>
      <text x="229" y="114" class="mono fieldText">3000</text>
    </g>

    <g transform="translate(0 362)">
      <rect width="284" height="44" rx="12" fill="#F4F7F5" stroke="#E4EAE7"/>
      <path d="M20 17H34M20 22H29M20 27H34" stroke="#7A827D" stroke-width="1.8" stroke-linecap="round"/>
      <text x="48" y="27" font-size="13" font-weight="720" fill="#2A312E">Advanced SSH settings</text>
      <text x="250" y="27" font-size="18" font-weight="700" fill="#8C9590">⌄</text>
    </g>

    <g transform="translate(0 438)">
      <rect width="74" height="32" rx="9" fill="#EEF0EF"/>
      <text x="19" y="21" font-size="14" font-weight="680" fill="#111312">Cancel</text>
      <rect x="210" width="74" height="32" rx="9" fill="#0A7CFF"/>
      <text x="233" y="21" font-size="14" font-weight="760" fill="#FFFFFF">Save</text>
    </g>
  </g>

  <text x="338" y="788" class="mono" font-size="14" font-weight="720" letter-spacing="4" fill="#B1BDB7">BURROW • SSH TUNNELS THAT REMEMBER HOW TO COME BACK</text>
</svg>
