<svg width="1000" height="720" viewBox="0 0 1000 720" xmlns="http://www.w3.org/2000/svg">
  <defs>
    <style>
      .sans { font-family: -apple-system, "Helvetica Neue", Arial, sans-serif; }
      .mono { font-family: "SF Mono", Menlo, monospace; }
    </style>
    <filter id="panelShadow" x="-20%" y="-20%" width="140%" height="140%">
      <feDropShadow dx="0" dy="6" stdDeviation="14" flood-color="#000000" flood-opacity="0.14"/>
    </filter>
  </defs>

  <rect width="1000" height="720" fill="#ececf0"/>

  <!-- ===================== menu panel ===================== -->
  <rect x="40" y="30" width="450" height="660" rx="24" fill="#ffffff" stroke="#00000012" filter="url(#panelShadow)"/>

  <!-- header -->
  <text x="72" y="86" class="sans" font-size="22" font-weight="700" fill="#1d1d1f" letter-spacing="-0.4">Burrow</text>
  <rect x="368" y="62" width="46" height="26" rx="13" fill="#e8f6ec"/>
  <circle cx="383" cy="75" r="3.5" fill="#34a853"/>
  <text x="393" y="79.5" class="sans" font-size="12.5" font-weight="700" fill="#1e7c3a">2</text>
  <rect x="420" y="62" width="46" height="26" rx="13" fill="#fdecea"/>
  <circle cx="435" cy="75" r="3.5" fill="#d93025"/>
  <text x="445" y="79.5" class="sans" font-size="12.5" font-weight="700" fill="#c5221f">1</text>
  <text x="72" y="113" class="sans" font-size="11" font-weight="600" fill="#8a8a8e">Gateway campus-vpn connected.</text>
  <line x1="40" y1="128" x2="490" y2="128" stroke="#00000010"/>

  <!-- profile chips: one-click scenes -->
  <rect x="64" y="137" width="62" height="22" rx="11" fill="#e8f6ec" stroke="#34a85340"/>
  <circle cx="77" cy="148" r="2.8" fill="#34a853"/>
  <text x="85" y="152" class="sans" font-size="11" font-weight="600" fill="#1d1d1f">lab</text>
  <rect x="132" y="137" width="74" height="22" rx="11" fill="#f4f4f6" stroke="#00000014"/>
  <circle cx="145" cy="148" r="2.8" fill="#b6b6ba"/>
  <text x="153" y="152" class="sans" font-size="11" font-weight="600" fill="#48484c">home</text>
  <rect x="212" y="137" width="24" height="22" rx="11" fill="none" stroke="#00000020" stroke-dasharray="3,2.5"/>
  <text x="220.5" y="152" class="sans" font-size="11" font-weight="700" fill="#98989d">+</text>
  <line x1="40" y1="168" x2="490" y2="168" stroke="#0000000a"/>

  <!-- VPN Gateways section -->
  <rect x="72" y="180" width="18" height="18" rx="5" fill="#f0f0f2"/>
  <path d="M81 184 L85.5 186 V189 C85.5 191.6 83.4 193.4 81 194.2 C78.6 193.4 76.5 191.6 76.5 189 V186 Z" fill="none" stroke="#98989d" stroke-width="1.2"/>
  <text x="98" y="193" class="sans" font-size="10.5" font-weight="700" fill="#8a8a8e" letter-spacing="0.2">VPN Gateways</text>
  <rect x="448" y="180" width="18" height="18" rx="5" fill="#f0f0f2"/>
  <text x="453.5" y="193" class="sans" font-size="11" font-weight="700" fill="#98989d">+</text>

  <rect x="64" y="204" width="402" height="58" rx="16" fill="#fbfbfc" stroke="#00000008"/>
  <circle cx="88" cy="233" r="8" fill="#34a853" opacity="0.12"/>
  <circle cx="88" cy="233" r="4" fill="#34a853"/>
  <text x="106" y="231" class="sans" font-size="13" font-weight="700" fill="#1d1d1f">campus-vpn</text>
  <text x="106" y="249" class="mono" font-size="10.5" font-weight="600" fill="#8a8a8e">vpn.university.edu · socks :11080</text>
  <rect x="384" y="219" width="56" height="28" rx="14" fill="#ffffff" stroke="#00000018"/>
  <text x="398" y="237" class="sans" font-size="12" font-weight="600" fill="#48484c">Stop</text>
  <circle cx="450" cy="233" r="1.7" fill="#b6b6ba"/><circle cx="456" cy="233" r="1.7" fill="#b6b6ba"/><circle cx="462" cy="233" r="1.7" fill="#b6b6ba"/>

  <!-- group: hpc.university.edu (via campus-vpn) -->
  <rect x="72" y="276" width="18" height="18" rx="5" fill="#f0f0f2"/>
  <text x="77" y="289" class="mono" font-size="9" font-weight="700" fill="#98989d">&gt;_</text>
  <text x="98" y="289" class="mono" font-size="10.5" font-weight="700" fill="#98989d" letter-spacing="0.2">hpc.university.edu</text>
  <rect x="238" y="277" width="110" height="18" rx="9" fill="#eef0ff"/>
  <path d="M247 280.5 L251 282 V284.6 C251 286.8 249.2 288.3 247 289 C244.8 288.3 243 286.8 243 284.6 V282 Z" fill="none" stroke="#5050d6" stroke-width="1.1"/>
  <text x="255" y="289" class="mono" font-size="9.5" font-weight="700" fill="#5050d6">campus-vpn</text>
  <path d="M336 284 L339 287 L342 284" fill="none" stroke="#5050d6" stroke-width="1.3" stroke-linecap="round"/>
  <rect x="398" y="276" width="42" height="20" rx="10" fill="#f0f0f2"/>
  <circle cx="410" cy="286" r="2.6" fill="#34a853"/>
  <text x="418" y="290" class="sans" font-size="10.5" font-weight="700" fill="#7a7a7e">2</text>
  <rect x="448" y="277" width="18" height="18" rx="5" fill="#f0f0f2"/>
  <text x="453.5" y="290" class="sans" font-size="11" font-weight="700" fill="#98989d">+</text>

  <rect x="64" y="302" width="402" height="117" rx="16" fill="#fbfbfc" stroke="#00000008"/>

  <!-- row: jupyter -->
  <circle cx="88" cy="331" r="8" fill="#34a853" opacity="0.12"/>
  <circle cx="88" cy="331" r="4" fill="#34a853"/>
  <text x="106" y="329" class="sans" font-size="13" font-weight="700" fill="#1d1d1f">jupyter</text>
  <rect x="106" y="335" width="40" height="17" rx="4" fill="#f0f0f2"/>
  <text x="113" y="347" class="mono" font-size="10.5" font-weight="700" fill="#5a5a5e">8888</text>
  <text x="152" y="347" class="mono" font-size="10.5" fill="#b0b0b5">›</text>
  <text x="162" y="347" class="mono" font-size="10.5" font-weight="600" fill="#7a7a7e">8888</text>
  <text x="196" y="347" class="mono" font-size="10" fill="#c2c2c6">· via campus-vpn</text>
  <g transform="translate(362,324)"><path d="M6 0 L0 7.5 L4.2 7.5 L3 13 L10 5.5 L5.6 5.5 Z" fill="#5050d6"/></g>
  <rect x="384" y="317" width="56" height="28" rx="14" fill="#ffffff" stroke="#00000018"/>
  <text x="398" y="335" class="sans" font-size="12" font-weight="600" fill="#48484c">Stop</text>
  <circle cx="450" cy="331" r="1.7" fill="#b6b6ba"/><circle cx="456" cy="331" r="1.7" fill="#b6b6ba"/><circle cx="462" cy="331" r="1.7" fill="#b6b6ba"/>
  <line x1="106" y1="360" x2="466" y2="360" stroke="#00000008"/>

  <!-- row: rstudio (stopped) -->
  <circle cx="88" cy="389" r="8" fill="#9a9aa0" opacity="0.14"/>
  <circle cx="88" cy="389" r="4" fill="#9a9aa0"/>
  <text x="106" y="387" class="sans" font-size="13" font-weight="700" fill="#1d1d1f">rstudio</text>
  <rect x="106" y="393" width="40" height="17" rx="4" fill="#f0f0f2"/>
  <text x="113" y="405" class="mono" font-size="10.5" font-weight="700" fill="#5a5a5e">8787</text>
  <text x="152" y="405" class="mono" font-size="10.5" fill="#b0b0b5">›</text>
  <text x="162" y="405" class="mono" font-size="10.5" font-weight="600" fill="#7a7a7e">8787</text>
  <text x="196" y="405" class="mono" font-size="10" fill="#c2c2c6">· via campus-vpn</text>
  <g transform="translate(362,382)"><path d="M6 0 L0 7.5 L4.2 7.5 L3 13 L10 5.5 L5.6 5.5 Z" fill="#cfcfd4"/></g>
  <rect x="372" y="375" width="68" height="28" rx="14" fill="#3b3bd0"/>
  <text x="386" y="393" class="sans" font-size="12" font-weight="700" fill="#ffffff">Connect</text>
  <circle cx="450" cy="389" r="1.7" fill="#b6b6ba"/><circle cx="456" cy="389" r="1.7" fill="#b6b6ba"/><circle cx="462" cy="389" r="1.7" fill="#b6b6ba"/>

  <!-- group: bastion.example.com (direct) -->
  <rect x="72" y="437" width="18" height="18" rx="5" fill="#f0f0f2"/>
  <text x="77" y="450" class="mono" font-size="9" font-weight="700" fill="#98989d">&gt;_</text>
  <text x="98" y="450" class="mono" font-size="10.5" font-weight="700" fill="#98989d" letter-spacing="0.2">bastion.example.com</text>
  <rect x="253" y="438" width="60" height="18" rx="9" fill="#f0f0f2"/>
  <text x="263" y="450" class="mono" font-size="9.5" font-weight="700" fill="#98989d">direct</text>
  <path d="M301 445 L304 448 L307 445" fill="none" stroke="#98989d" stroke-width="1.3" stroke-linecap="round"/>
  <rect x="392" y="437" width="48" height="20" rx="10" fill="#f0f0f2"/>
  <circle cx="404" cy="447" r="2.6" fill="#34a853"/>
  <circle cx="412" cy="447" r="2.6" fill="#d93025"/>
  <text x="420" y="451" class="sans" font-size="10.5" font-weight="700" fill="#7a7a7e">2</text>
  <rect x="448" y="438" width="18" height="18" rx="5" fill="#f0f0f2"/>
  <text x="453.5" y="451" class="sans" font-size="11" font-weight="700" fill="#98989d">+</text>

  <rect x="64" y="463" width="402" height="117" rx="16" fill="#fbfbfc" stroke="#00000008"/>

  <!-- row: prod-db -->
  <circle cx="88" cy="492" r="8" fill="#34a853" opacity="0.12"/>
  <circle cx="88" cy="492" r="4" fill="#34a853"/>
  <text x="106" y="490" class="sans" font-size="13" font-weight="700" fill="#1d1d1f">prod-db</text>
  <rect x="106" y="496" width="46" height="17" rx="4" fill="#f0f0f2"/>
  <text x="112" y="508" class="mono" font-size="10.5" font-weight="700" fill="#5a5a5e">15432</text>
  <text x="158" y="508" class="mono" font-size="10.5" fill="#b0b0b5">›</text>
  <text x="168" y="508" class="mono" font-size="10.5" font-weight="600" fill="#7a7a7e">5432</text>
  <g transform="translate(362,485)"><path d="M6 0 L0 7.5 L4.2 7.5 L3 13 L10 5.5 L5.6 5.5 Z" fill="#5050d6"/></g>
  <rect x="384" y="478" width="56" height="28" rx="14" fill="#ffffff" stroke="#00000018"/>
  <text x="398" y="496" class="sans" font-size="12" font-weight="600" fill="#48484c">Stop</text>
  <circle cx="450" cy="492" r="1.7" fill="#b6b6ba"/><circle cx="456" cy="492" r="1.7" fill="#b6b6ba"/><circle cx="462" cy="492" r="1.7" fill="#b6b6ba"/>
  <line x1="106" y1="521" x2="466" y2="521" stroke="#00000008"/>

  <!-- row: staging-api (retrying) -->
  <circle cx="88" cy="550" r="8" fill="#d93025" opacity="0.12"/>
  <circle cx="88" cy="550" r="4" fill="#d93025"/>
  <text x="106" y="548" class="sans" font-size="13" font-weight="700" fill="#1d1d1f">staging-api</text>
  <text x="106" y="566" class="mono" font-size="10.5" font-weight="600" fill="#c5221f">network issue · retry 3 in 4s</text>
  <g transform="translate(362,543)"><path d="M6 0 L0 7.5 L4.2 7.5 L3 13 L10 5.5 L5.6 5.5 Z" fill="#5050d6"/></g>
  <rect x="384" y="536" width="56" height="28" rx="14" fill="#ffffff" stroke="#00000018"/>
  <text x="398" y="554" class="sans" font-size="12" font-weight="600" fill="#48484c">Stop</text>
  <circle cx="450" cy="550" r="1.7" fill="#b6b6ba"/><circle cx="456" cy="550" r="1.7" fill="#b6b6ba"/><circle cx="462" cy="550" r="1.7" fill="#b6b6ba"/>

  <!-- footer: single row -->
  <path d="M40 602 H490 V666 Q490 690 466 690 H64 Q40 690 40 666 Z" fill="#f7f7f9"/>
  <line x1="40" y1="602" x2="490" y2="602" stroke="#00000010"/>

  <circle cx="66" cy="646" r="7" fill="none" stroke="#8a8a8e" stroke-width="1.5"/>
  <circle cx="66" cy="646" r="2.5" fill="#8a8a8e"/>
  <text x="80" y="650" class="sans" font-size="11.5" font-weight="600" fill="#6a6a6e">Settings ▾</text>

  <rect x="163" y="632" width="84" height="28" rx="14" fill="#ffffff" stroke="#00000020"/>
  <path d="M177 638.5 L181.5 640.3 V643.4 C181.5 646 179.4 647.8 177 648.6 C174.6 647.8 172.5 646 172.5 643.4 V640.3 Z" fill="none" stroke="#48484c" stroke-width="1.2"/>
  <text x="187" y="650" class="sans" font-size="11.5" font-weight="600" fill="#48484c">New VPN</text>

  <rect x="255" y="632" width="100" height="28" rx="14" fill="#ffffff" stroke="#00000020"/>
  <rect x="267" y="640" width="9" height="11" rx="2" fill="none" stroke="#48484c" stroke-width="1.2"/>
  <text x="281" y="650" class="sans" font-size="11.5" font-weight="600" fill="#48484c">New Profile</text>

  <rect x="363" y="632" width="103" height="28" rx="14" fill="#141416"/>
  <text x="375" y="650" class="sans" font-size="11.5" font-weight="700" fill="#ffffff">+ New Tunnel</text>

  <!-- ===================== feature column ===================== -->
  <text x="540" y="78" class="sans" font-size="21" font-weight="700" fill="#1d1d1f" letter-spacing="-0.3">Stop babysitting tunnels.</text>
  <text x="540" y="101" class="sans" font-size="13" font-weight="500" fill="#7a7a7e">SSH port forwards and VPNs, in one menu-bar app.</text>

  <circle cx="547" cy="146" r="3.5" fill="#5050d6"/>
  <text x="562" y="151" class="sans" font-size="13" font-weight="700" fill="#1d1d1f">Every forward in one place</text>
  <text x="562" y="169" class="sans" font-size="11.5" fill="#5a5a5e">See at a glance what's up. Copy localhost:8888 in one click;</text>
  <text x="562" y="184" class="sans" font-size="11.5" fill="#5a5a5e">profile chips switch whole scenes (VPN + tunnels) at once.</text>

  <circle cx="547" cy="216" r="3.5" fill="#34a853"/>
  <text x="562" y="221" class="sans" font-size="13" font-weight="700" fill="#1d1d1f">Status you can trust</text>
  <text x="562" y="239" class="sans" font-size="11.5" fill="#5a5a5e">A tunnel turns green only once its local port is actually being</text>
  <text x="562" y="254" class="sans" font-size="11.5" fill="#5a5a5e">served — and it checks the remote service too, not just the port.</text>

  <circle cx="547" cy="286" r="3.5" fill="#34a853"/>
  <text x="562" y="291" class="sans" font-size="13" font-weight="700" fill="#1d1d1f">It heals itself</text>
  <text x="562" y="309" class="sans" font-size="11.5" fill="#5a5a5e">Reconnects through sleep, Wi-Fi changes, and VPN flaps.</text>
  <text x="562" y="324" class="sans" font-size="11.5" fill="#5a5a5e">Stale forwards are reclaimed instead of blocking the port.</text>

  <circle cx="547" cy="356" r="3.5" fill="#5050d6"/>
  <text x="562" y="361" class="sans" font-size="13" font-weight="700" fill="#1d1d1f">VPNs that don't take over your Mac</text>
  <text x="562" y="379" class="sans" font-size="11.5" fill="#5a5a5e">Each VPN becomes a per-host gateway: only the tunnels you pick</text>
  <text x="562" y="394" class="sans" font-size="11.5" fill="#5a5a5e">use it. Run several at once; everything else stays untouched.</text>

  <circle cx="547" cy="426" r="3.5" fill="#5050d6"/>
  <text x="562" y="431" class="sans" font-size="13" font-weight="700" fill="#1d1d1f">Single sign-on built in</text>
  <text x="562" y="449" class="sans" font-size="11.5" fill="#5a5a5e">GlobalProtect and AnyConnect SAML logins open in a browser</text>
  <text x="562" y="464" class="sans" font-size="11.5" fill="#5a5a5e">window; passwords and certificate pins live in the Keychain.</text>

  <circle cx="547" cy="496" r="3.5" fill="#9a9aa0"/>
  <text x="562" y="501" class="sans" font-size="13" font-weight="700" fill="#1d1d1f">A file, not a silo</text>
  <text x="562" y="519" class="sans" font-size="11.5" fill="#5a5a5e">One JSON config with a CLI and live reload; import from</text>
  <text x="562" y="534" class="sans" font-size="11.5" fill="#5a5a5e">~/.ssh/config. It drives the system ssh — leave anytime.</text>

  <rect x="540" y="566" width="420" height="2" rx="1" fill="#00000010"/>
  <text x="540" y="596" class="mono" font-size="11.5" fill="#5a5a5e">brew install openconnect ocproxy   # for VPN gateways</text>
  <text x="540" y="616" class="mono" font-size="11.5" fill="#5a5a5e">./scripts/install-app.sh &amp;&amp; open ~/Applications/Burrow.app</text>
</svg>
